<?xml version="1.0" encoding="UTF-8"?>
<svg id="Layer_1" data-name="Layer 1" xmlns="http://www.w3.org/2000/svg" viewBox="0 0 500 500">
  <defs>
    <style>
      .cls-1 {
        fill: #745dc5;
      }

      .cls-1, .cls-2 {
        stroke-width: 0px;
      }

      .cls-2 {
        fill: #5b48a2;
      }
    </style>
  </defs>
  <g>
    <path class="cls-2" d="M204.68,252.69v47.29c-2.22.03-4.32-.91-5.75-2.65l-23.6-28.49c-1.69-2.07-2.15-4.77-1.22-7.25.93-2.5,3.05-4.25,5.66-4.68l24.91-4.22Z"/>
    <path class="cls-2" d="M370.02,246.84c0,22.67-2.08,42.96-6.3,60.84-4.18,17.92-11.04,33.3-20.56,46.16-9.5,12.88-22.23,22.67-38.19,29.39-15.96,6.71-35.52,10.07-58.74,10.07h-116.25v-150.55c12.67,8.32,28.61,17.75,39.58,20.78-.48,3.2.4,6.47,2.55,9.04l23.59,28.49c2.22,2.7,5.42,4.18,8.83,4.18h.15v26.34h36.07c11.76,0,21.21-2.08,28.34-6.28,7.14-4.2,12.53-10.07,16.17-17.63,3.63-7.54,6.01-16.49,7.13-26.86.52-4.77.91-9.74,1.19-14.94,20.9-7.54,61.62-31.3,75.75-39.69.46,6.63.69,13.5.69,20.64Z"/>
    <path class="cls-2" d="M293.78,258.86c.19-4.68.29-9.54.29-14.53,0-11.74-.71-22.31-2.1-31.68-1.41-9.37-3.93-17.42-7.56-24.14-3.63-6.71-8.95-11.74-15.96-15.1-6.97-3.36-16.22-5.04-27.7-5.04h-36.07v78.63l-25.6,4.34c-3.51.6-6.46,2.69-8.16,5.73-10.97-2.93-28.01-13.27-40.94-21.87v-67.03h74.88v-61.48h38.43c23.23,0,42.94,2.93,59.16,8.8,16.25,5.87,29.32,14.63,39.25,26.24,9.92,11.62,17.13,26.01,21.61,43.23,2.7,10.4,4.6,21.75,5.66,34.06-11.71,6.96-53.6,31.58-75.19,39.84Z"/>
  </g>
  <path class="cls-1" d="M204.86,106.69v61.48h-74.88v-2.57l23.88-19.25c1.77.57,3.53.98,4.96,1.38l23.57,4.08-5.29-23.29c-.05-.26-.1-.52-.17-.77l26.12-21.06h1.81Z"/>
  <path class="cls-2" d="M225.91,282.38c.14,1.19-.38,2.31-1.34,3l-3.8,2.74-2.94,7.92c-1.77,4.8-5.85,8.18-10.9,9.02-.74.14-1.51.19-2.24.21v-5.27c.45,0,.93.03,1.39-.05,3.2-.55,5.8-2.63,6.92-5.7l2.55-6.82c-.22-.4-.38-.84-.43-1.33l-.52-5.2c-.12-1.19.38-2.31,1.34-3.01.95-.67,2.19-.83,3.25-.34.02,0,.02.03.02.03l4.7,2.08.07.03c1.08.5,1.81,1.52,1.93,2.69Z"/>
  <path class="cls-2" d="M236.12,269.74c.24,1.24-.19,2.46-1.12,3.25-.64.57-1.45.84-2.24.84-.34,0-.67-.05-1.02-.14-.03-.02-.09-.02-.14-.03l-4.96-1.7-.22-.09c-1.15-.4-2.01-1.38-2.26-2.6-.22-1.22.19-2.43,1.14-3.25l4.13-3.58c.29-.28.64-.46.96-.62l.24-.71c1.21-3.2-.1-5.25-2.29-7.87-1.81-2.22-4.44-3.44-7.21-3.44-.55,0-1.08.07-1.64.15l-14.82,2.74v-5.7l13.93-2.36c5.29-.9,10.47,1.03,13.89,5.17,3.43,4.13,4.29,7.06,3.31,12.12l-.69,2.7,1,5.11Z"/>
  <g>
    <path class="cls-2" d="M171.51,117.11c-5.46-5.2-13.34-6.22-19.75-3.13-1.91.9-3.7,2.15-5.23,3.75-.38.41-.74.81-1.07,1.26-5.61,7.06-4.96,17.39,1.69,23.73,1.86,1.77,4.32,2.88,6.71,3.65l23.07-18.61c-.81-3.53-2.41-7.76-5.42-10.64ZM165.74,136c-3.37,3.55-8.95,3.7-12.48.33-3.55-3.34-3.7-8.95-.31-12.52,3.34-3.53,8.92-3.65,12.48-.29,3.53,3.36,3.67,8.95.31,12.48Z"/>
    <path class="cls-2" d="M182.39,151.82l-23.57-4.08c-1.43-.4-3.19-.81-4.96-1.38l23.07-18.61c.07.26.12.52.17.77l5.29,23.29Z"/>
  </g>
  <path class="cls-2" d="M293.78,258.86s-4.25,4.27-7.97,5.41c-1.64-2.39-4.39-3.98-7.51-3.98-5.03,0-9.11,4.1-9.11,9.11s4.08,9.11,9.11,9.11,9.11-4.08,9.11-9.11c0-.09,0-.17-.02-.26,1.39-.48,4.3-1.6,6.18-3.25,0-3.01.21-7.02.21-7.02ZM278.3,274.08c-2.58,0-4.68-2.1-4.68-4.68s2.1-4.68,4.68-4.68,4.68,2.1,4.68,4.68-2.1,4.68-4.68,4.68Z"/>
</svg>